<svg xmlns="http://www.w3.org/2000/svg" width="512" height="512" viewBox="0 0 512 512">
  <defs>
    <linearGradient id="shieldGrad" x1="0%" y1="0%" x2="0%" y2="100%">
      <stop offset="0%" stop-color="#FF6B2B"/>
      <stop offset="100%" stop-color="#CC3300"/>
    </linearGradient>
    <linearGradient id="bannerGrad" x1="0%" y1="0%" x2="100%" y2="0%">
      <stop offset="0%" stop-color="#1a1a2e"/>
      <stop offset="100%" stop-color="#16213e"/>
    </linearGradient>
  </defs>
  <!-- Shield body -->
  <path d="M256 28C256 28 130 72 82 72C82 72 62 280 256 484C450 280 430 72 430 72C382 72 256 28 256 28Z" fill="url(#shieldGrad)" stroke="#1a1a2e" stroke-width="12"/>
  <!-- Inner shield highlight -->
  <path d="M256 62C256 62 152 98 114 98C114 98 98 268 256 446C414 268 398 98 398 98C360 98 256 62 256 62Z" fill="none" stroke="rgba(255,255,255,0.2)" stroke-width="4"/>
  <!-- Warning triangle -->
  <path d="M256 140L340 300H172Z" fill="#1a1a2e" stroke="#FFD700" stroke-width="6" stroke-linejoin="round"/>
  <!-- Exclamation mark -->
  <rect x="248" y="180" width="16" height="72" rx="4" fill="#FFD700"/>
  <circle cx="256" cy="276" r="10" fill="#FFD700"/>
  <!-- AHW text banner -->
  <rect x="120" y="330" width="272" height="56" rx="8" fill="url(#bannerGrad)" stroke="#FFD700" stroke-width="3"/>
  <text x="256" y="367" font-family="Arial,Helvetica,sans-serif" font-weight="900" font-size="38" fill="#FFD700" text-anchor="middle" letter-spacing="8">AHW</text>
</svg>
